# xmcd
#
# Track frame offsets: 
#        150
#        26487
#        53370
#        72709
#        98399
#        118422
#        132322
#        146105
#        170488
#        184439
#        198472
#        223928
#
# Disc length: 3561 seconds
#
# Revision: 1
# Processed by: cddbd v1.5.2PL0 Copyright (c) Steve Scherf et al.
# Submitted via: ExactAudioCopy v1.0b6
#
DISCID=bd0de70c
DTITLE=Tunji Oyelana - A Nigerian retrospective
DYEAR=1980
DGENRE=Afrique
TTITLE0=Oloti 1980
TTITLE1=E gbe mi 1976
TTITLE2=Panbolanbola 1976
TTITLE3=Lenle 1976
TTITLE4=Aduke 1974
TTITLE5=Aiye nla 1968
TTITLE6=Koriko nde 1971
TTITLE7=Irawo mi 1974
TTITLE8=Omonike 1968
TTITLE9=Agba lode [original 45 version]1971
TTITLE10=Alaru t' onje buredi 1974
TTITLE11=Which way africa ? 1974
EXTD=
EXTT0=
EXTT1=
EXTT2=
EXTT3=
EXTT4=
EXTT5=
EXTT6=
EXTT7=
EXTT8=
EXTT9=
EXTT10=
EXTT11=
PLAYORDER=
